<svg xmlns="http://www.w3.org/2000/svg" xmlns:xlink="http://www.w3.org/1999/xlink" zoomAndPan="magnify" preserveAspectRatio="xMidYMid meet" version="1.0" viewBox="92 304.79 642.16 143.29"><defs><g/><clipPath id="6a6fee42b1"><path d="M 0.601562 14 L 39 14 L 39 100 L 0.601562 100 Z M 0.601562 14 " clip-rule="nonzero"/></clipPath><clipPath id="d1a29da880"><rect x="0" width="43" y="0" height="103"/></clipPath></defs><path fill="#1d1f1e" d="M 579.183594 397.582031 C 579.183594 397.511719 579.21875 397.476562 579.289062 397.472656 C 583.460938 397.257812 586.933594 396.914062 587.695312 392.511719 C 587.972656 390.917969 588.117188 389.441406 588.125 388.082031 C 588.140625 384.996094 588.148438 371.738281 588.140625 348.3125 C 588.140625 348.203125 588.109375 348.105469 588.039062 348.019531 C 587.972656 347.933594 587.882812 347.878906 587.777344 347.855469 C 587.667969 347.832031 587.566406 347.847656 587.46875 347.898438 C 587.371094 347.949219 587.300781 348.023438 587.257812 348.125 L 563.617188 401.238281 C 563.574219 401.335938 563.496094 401.386719 563.390625 401.386719 L 561.96875 401.386719 C 561.835938 401.386719 561.742188 401.324219 561.6875 401.199219 C 559.636719 396.53125 551.929688 378.917969 538.570312 348.363281 C 538.476562 348.15625 538.375 348 538.261719 347.898438 C 538.21875 347.859375 538.171875 347.855469 538.121094 347.878906 C 538.066406 347.902344 538.042969 347.941406 538.042969 348 C 538.050781 354.84375 538.054688 367.34375 538.050781 385.503906 C 538.046875 387.796875 538.167969 389.878906 538.410156 391.75 C 538.773438 394.570312 539.941406 396.617188 542.976562 397.105469 C 544.4375 397.339844 545.730469 397.449219 546.859375 397.433594 C 546.917969 397.433594 546.949219 397.464844 546.949219 397.523438 L 546.949219 400.472656 C 546.949219 400.527344 546.921875 400.558594 546.863281 400.558594 L 524.292969 400.558594 C 524.230469 400.558594 524.199219 400.527344 524.199219 400.464844 L 524.199219 397.566406 C 524.199219 397.496094 524.230469 397.457031 524.300781 397.457031 C 529.019531 397.296875 532.207031 396.742188 532.867188 391.617188 C 533.042969 390.222656 533.140625 388.550781 533.15625 386.597656 C 533.175781 383.871094 533.179688 372.644531 533.167969 352.917969 C 533.167969 350.527344 533.140625 347.832031 532.527344 345.261719 C 531.851562 342.425781 529.757812 341.492188 527.050781 341.132812 C 526.230469 341.023438 525.691406 340.972656 525.4375 340.980469 C 525.316406 340.988281 525.214844 340.945312 525.128906 340.863281 C 525.042969 340.78125 525 340.679688 525 340.558594 L 525 338.222656 C 525 338.109375 525.039062 338.011719 525.121094 337.929688 C 525.203125 337.847656 525.300781 337.808594 525.414062 337.808594 L 544.230469 337.808594 C 544.398438 337.808594 544.519531 337.886719 544.585938 338.039062 L 564.980469 385.878906 C 565.019531 385.964844 565.085938 386.007812 565.179688 386.011719 C 565.277344 386.011719 565.34375 385.96875 565.382812 385.882812 L 586.429688 338.039062 C 586.496094 337.886719 586.613281 337.808594 586.785156 337.808594 L 604.636719 337.808594 C 604.738281 337.808594 604.792969 337.859375 604.792969 337.964844 L 604.792969 340.746094 C 604.792969 340.855469 604.734375 340.914062 604.625 340.917969 C 602.4375 341.042969 600.890625 341.347656 599.984375 341.824219 C 597.71875 343.027344 597.109375 345.46875 596.925781 347.839844 C 596.792969 349.585938 596.722656 351.203125 596.722656 352.683594 C 596.71875 375.125 596.722656 386.558594 596.730469 386.988281 C 596.761719 388.890625 596.886719 390.582031 597.105469 392.0625 C 597.441406 394.335938 598.503906 396.394531 600.953125 396.953125 C 602.390625 397.28125 603.898438 397.441406 605.488281 397.4375 C 605.558594 397.4375 605.59375 397.472656 605.59375 397.542969 L 605.59375 400.464844 C 605.59375 400.527344 605.5625 400.558594 605.5 400.558594 L 579.277344 400.558594 C 579.214844 400.558594 579.183594 400.527344 579.183594 400.464844 Z M 579.183594 397.582031 " fill-opacity="1" fill-rule="nonzero"/><path fill="#1d1f1e" d="M 336.480469 392.828125 C 336.472656 392.710938 336.414062 392.640625 336.300781 392.617188 C 336.1875 392.59375 336.101562 392.628906 336.046875 392.734375 C 332.695312 398.84375 326.539062 402.050781 319.59375 401.132812 C 314.394531 400.449219 310.726562 396.878906 310.914062 391.511719 C 311.023438 388.203125 312.433594 385.460938 315.136719 383.292969 C 317.535156 381.371094 320.472656 379.652344 323.949219 378.136719 C 330.769531 375.167969 334.683594 373.453125 335.699219 372.992188 C 335.785156 372.949219 335.828125 372.886719 335.828125 372.792969 C 335.925781 368.394531 336.179688 362.277344 331.082031 360.304688 C 329.304688 359.617188 327.363281 359.46875 325.257812 359.855469 C 322.632812 360.34375 321.871094 362.855469 321.070312 365.199219 C 320.605469 366.5625 319.800781 368.25 318.398438 368.664062 C 315.898438 369.398438 313.160156 368.457031 312.898438 365.503906 C 312.351562 359.3125 319.207031 357.371094 323.886719 356.828125 C 327.648438 356.386719 331.316406 356.46875 334.890625 357.078125 C 341.066406 358.125 343.753906 362.316406 343.808594 368.390625 C 343.84375 372.632812 343.847656 379.171875 343.824219 388.003906 C 343.816406 390.089844 344.078125 392.125 344.613281 394.105469 C 345.214844 396.34375 346.730469 397.199219 349.160156 396.671875 C 350.230469 396.441406 350.992188 395.894531 351.441406 395.03125 C 351.449219 395.015625 351.460938 395.007812 351.476562 395.007812 C 351.492188 395.007812 351.503906 395.015625 351.511719 395.03125 L 352.601562 396.914062 C 352.632812 396.96875 352.632812 397.023438 352.597656 397.078125 C 350.253906 400.574219 345.644531 401.808594 341.722656 401.199219 C 338.4375 400.695312 336.796875 397.382812 336.59375 394.382812 C 336.542969 393.652344 336.507812 393.132812 336.480469 392.828125 Z M 335.6875 376.515625 C 332.429688 377.734375 329.382812 379.144531 326.554688 380.738281 C 323.523438 382.445312 320.378906 384.933594 319.410156 388.359375 C 318.109375 392.96875 321.421875 396.699219 326.089844 396.394531 C 331.183594 396.0625 334.378906 391.25 335.425781 386.695312 C 335.726562 385.386719 335.863281 383.855469 335.835938 382.09375 C 335.820312 381.234375 335.824219 379.414062 335.851562 376.632812 C 335.855469 376.589844 335.835938 376.554688 335.800781 376.53125 C 335.765625 376.503906 335.726562 376.5 335.6875 376.515625 Z M 335.6875 376.515625 " fill-opacity="1" fill-rule="nonzero"/><path fill="#1d1f1e" d="M 359.121094 386.539062 L 360.777344 386.539062 C 360.890625 386.539062 360.964844 386.59375 360.996094 386.703125 C 362.820312 393.160156 366.550781 398.902344 374.050781 397.910156 C 377.703125 397.429688 379.554688 395.328125 379.613281 391.613281 C 379.65625 388.855469 377.746094 387.460938 375.617188 385.980469 C 375.070312 385.601562 372.308594 383.832031 367.332031 380.671875 C 363.636719 378.328125 359.644531 375.210938 359.21875 370.433594 C 358.515625 362.625 363.933594 356.207031 371.957031 356.578125 C 374.601562 356.699219 377.234375 357.5 379.855469 358.972656 C 379.953125 359.027344 380.039062 359.015625 380.117188 358.941406 L 381.574219 357.484375 C 381.648438 357.410156 381.738281 357.375 381.84375 357.375 L 383.007812 357.375 C 383.132812 357.375 383.195312 357.4375 383.195312 357.5625 L 383.195312 368.925781 C 383.195312 369.058594 383.128906 369.125 382.996094 369.125 L 381.246094 369.125 C 381.125 369.128906 381.046875 369.070312 381.007812 368.953125 C 379.332031 364.308594 376.636719 359.011719 370.625 360.019531 C 367.792969 360.5 366.214844 362.023438 365.890625 364.59375 C 365.394531 368.550781 368.308594 370.730469 371.253906 372.550781 C 374.9375 374.824219 378.121094 376.898438 380.800781 378.769531 C 381.832031 379.492188 382.90625 380.453125 384.015625 381.652344 C 386.898438 384.773438 387.425781 388.761719 386.382812 392.765625 C 385.003906 398.058594 380.195312 400.855469 375.011719 401.304688 C 370.503906 401.691406 366.023438 400.648438 362.5 397.828125 C 362.460938 397.796875 362.414062 397.785156 362.363281 397.792969 C 362.3125 397.800781 362.277344 397.828125 362.25 397.871094 L 360.800781 400.390625 C 360.734375 400.507812 360.632812 400.5625 360.5 400.5625 L 359.097656 400.5625 C 358.972656 400.5625 358.910156 400.5 358.910156 400.375 L 358.910156 386.746094 C 358.910156 386.605469 358.980469 386.539062 359.121094 386.539062 Z M 359.121094 386.539062 " fill-opacity="1" fill-rule="nonzero"/><path fill="#1d1f1e" d="M 441.335938 378.886719 C 441.339844 379.621094 441.304688 380.355469 441.230469 381.089844 C 441.160156 381.820312 441.050781 382.546875 440.90625 383.269531 C 440.761719 383.992188 440.582031 384.703125 440.367188 385.40625 C 440.148438 386.113281 439.898438 386.804688 439.613281 387.484375 C 439.328125 388.164062 439.011719 388.828125 438.660156 389.476562 C 438.308594 390.128906 437.925781 390.757812 437.511719 391.371094 C 437.097656 391.984375 436.65625 392.574219 436.183594 393.144531 C 435.707031 393.710938 435.207031 394.257812 434.679688 394.777344 C 434.152344 395.300781 433.601562 395.792969 433.023438 396.261719 C 432.445312 396.730469 431.847656 397.167969 431.226562 397.578125 C 430.605469 397.988281 429.96875 398.367188 429.308594 398.714844 C 428.648438 399.0625 427.976562 399.378906 427.285156 399.660156 C 426.597656 399.941406 425.894531 400.191406 425.179688 400.40625 C 424.464844 400.621094 423.738281 400.800781 423.007812 400.945312 C 422.273438 401.089844 421.535156 401.199219 420.792969 401.273438 C 420.046875 401.347656 419.304688 401.382812 418.554688 401.386719 C 417.808594 401.386719 417.0625 401.351562 416.320312 401.28125 C 415.574219 401.210938 414.835938 401.105469 414.101562 400.960938 C 413.371094 400.820312 412.644531 400.640625 411.929688 400.429688 C 411.214844 400.21875 410.511719 399.972656 409.820312 399.691406 C 409.128906 399.410156 408.453125 399.097656 407.792969 398.753906 C 407.132812 398.40625 406.492188 398.03125 405.871094 397.621094 C 405.25 397.214844 404.648438 396.777344 404.070312 396.3125 C 403.492188 395.847656 402.9375 395.355469 402.40625 394.835938 C 401.878906 394.316406 401.375 393.773438 400.902344 393.203125 C 400.425781 392.636719 399.980469 392.046875 399.5625 391.4375 C 399.148438 390.824219 398.761719 390.195312 398.410156 389.546875 C 398.054688 388.898438 397.734375 388.238281 397.449219 387.558594 C 397.160156 386.878906 396.910156 386.1875 396.691406 385.484375 C 396.472656 384.78125 396.289062 384.066406 396.140625 383.347656 C 395.996094 382.625 395.882812 381.898438 395.808594 381.167969 C 395.734375 380.433594 395.699219 379.703125 395.695312 378.964844 C 395.695312 378.230469 395.730469 377.496094 395.800781 376.765625 C 395.875 376.03125 395.984375 375.304688 396.128906 374.582031 C 396.273438 373.863281 396.453125 373.148438 396.667969 372.445312 C 396.882812 371.742188 397.132812 371.046875 397.417969 370.367188 C 397.703125 369.6875 398.019531 369.023438 398.371094 368.375 C 398.722656 367.726562 399.105469 367.09375 399.519531 366.480469 C 399.933594 365.871094 400.378906 365.277344 400.851562 364.710938 C 401.324219 364.140625 401.824219 363.59375 402.351562 363.074219 C 402.878906 362.550781 403.433594 362.058594 404.007812 361.589844 C 404.585938 361.121094 405.183594 360.683594 405.804688 360.273438 C 406.425781 359.863281 407.066406 359.484375 407.726562 359.136719 C 408.382812 358.789062 409.058594 358.476562 409.746094 358.191406 C 410.4375 357.910156 411.140625 357.660156 411.855469 357.445312 C 412.570312 357.230469 413.292969 357.050781 414.027344 356.90625 C 414.757812 356.761719 415.496094 356.652344 416.242188 356.578125 C 416.984375 356.507812 417.730469 356.46875 418.476562 356.46875 C 419.226562 356.464844 419.96875 356.5 420.714844 356.570312 C 421.457031 356.640625 422.195312 356.75 422.929688 356.890625 C 423.664062 357.035156 424.386719 357.210938 425.105469 357.421875 C 425.820312 357.636719 426.523438 357.882812 427.214844 358.160156 C 427.90625 358.441406 428.578125 358.753906 429.238281 359.101562 C 429.898438 359.445312 430.539062 359.824219 431.164062 360.230469 C 431.785156 360.636719 432.386719 361.074219 432.964844 361.539062 C 433.542969 362.003906 434.097656 362.496094 434.625 363.015625 C 435.15625 363.535156 435.65625 364.078125 436.132812 364.648438 C 436.605469 365.214844 437.054688 365.804688 437.46875 366.414062 C 437.886719 367.027344 438.269531 367.65625 438.625 368.304688 C 438.976562 368.953125 439.296875 369.617188 439.585938 370.292969 C 439.871094 370.972656 440.125 371.664062 440.34375 372.367188 C 440.5625 373.070312 440.742188 373.785156 440.890625 374.503906 C 441.039062 375.226562 441.148438 375.953125 441.222656 376.683594 C 441.296875 377.417969 441.335938 378.152344 441.335938 378.886719 Z M 405.003906 378.859375 C 405.007812 387.101562 408.488281 397.222656 418.527344 397.21875 C 428.570312 397.210938 432.039062 387.089844 432.039062 378.847656 C 432.035156 370.605469 428.554688 360.488281 418.511719 360.488281 C 408.46875 360.496094 405.003906 370.617188 405.003906 378.859375 Z M 405.003906 378.859375 " fill-opacity="1" fill-rule="nonzero"/><path fill="#1d1f1e" d="M 462.203125 356.582031 C 462.273438 356.566406 462.316406 356.59375 462.324219 356.667969 L 463.277344 364.570312 C 463.285156 364.636719 463.324219 364.679688 463.386719 364.699219 C 463.453125 364.71875 463.507812 364.703125 463.550781 364.652344 C 464.253906 363.855469 464.859375 363.199219 465.371094 362.691406 C 469.671875 358.410156 474.832031 356.371094 480.84375 356.574219 C 483.289062 356.660156 485.621094 357.226562 487.839844 358.269531 C 490.460938 359.503906 492.179688 361.488281 492.996094 364.226562 C 493.910156 367.28125 494.011719 370.816406 494 374.019531 C 493.980469 382.125 493.996094 387.671875 494.042969 390.660156 C 494.066406 392.035156 494.191406 393.265625 494.417969 394.347656 C 494.945312 396.867188 496.472656 397.277344 498.753906 397.601562 C 499.472656 397.703125 499.9375 397.746094 500.152344 397.730469 C 500.273438 397.722656 500.382812 397.761719 500.472656 397.847656 C 500.5625 397.929688 500.609375 398.035156 500.609375 398.160156 L 500.609375 400.121094 C 500.609375 400.238281 500.566406 400.34375 500.480469 400.429688 C 500.394531 400.515625 500.292969 400.558594 500.171875 400.558594 L 479.578125 400.558594 C 479.515625 400.558594 479.484375 400.527344 479.484375 400.464844 L 479.484375 397.886719 C 479.484375 397.820312 479.519531 397.78125 479.59375 397.777344 C 482.917969 397.648438 485.597656 397.257812 485.980469 393.679688 C 486.160156 391.96875 486.253906 390.234375 486.257812 388.472656 C 486.265625 384.136719 486.265625 380.464844 486.253906 377.453125 C 486.25 375.300781 486.15625 373.277344 485.972656 371.378906 C 485.628906 367.84375 484.660156 363.101562 480.875 361.652344 C 477.203125 360.253906 472.699219 361.035156 469.519531 363.390625 C 466.796875 365.40625 465.074219 368.0625 464.351562 371.351562 C 464.144531 372.292969 464.035156 373.988281 464.027344 376.4375 C 463.996094 384.238281 463.914062 388.5625 464.179688 393.003906 C 464.3125 395.226562 465.109375 396.996094 467.625 397.414062 C 469.011719 397.648438 470.035156 397.765625 470.695312 397.769531 C 470.761719 397.769531 470.792969 397.800781 470.792969 397.867188 L 470.792969 400.46875 C 470.792969 400.527344 470.761719 400.558594 470.703125 400.558594 L 449.53125 400.558594 C 449.460938 400.558594 449.425781 400.523438 449.425781 400.457031 L 449.425781 397.890625 C 449.425781 397.8125 449.464844 397.773438 449.542969 397.769531 C 450.710938 397.710938 451.914062 397.546875 453.152344 397.277344 C 455.0625 396.855469 455.914062 395.035156 456.070312 393.3125 C 456.191406 391.96875 456.253906 391.003906 456.257812 390.425781 C 456.300781 382.0625 456.296875 376.464844 456.253906 373.625 C 456.214844 371.113281 456.132812 369.003906 456.015625 367.296875 C 455.875 365.253906 455.410156 362.921875 452.953125 362.511719 C 451.8125 362.324219 450.652344 362.246094 449.472656 362.289062 C 449.328125 362.292969 449.253906 362.226562 449.253906 362.082031 L 449.253906 359.875 C 449.253906 359.730469 449.324219 359.644531 449.464844 359.613281 Z M 462.203125 356.582031 " fill-opacity="1" fill-rule="nonzero"/><path fill="#1d1f1e" d="M 636.136719 356.605469 C 647.164062 357.203125 656.421875 365.199219 657.550781 376.292969 C 658.988281 390.355469 647.894531 402.121094 633.710938 401.351562 C 619.523438 400.582031 609.769531 387.6875 612.71875 373.863281 C 615.042969 362.957031 625.105469 356.007812 636.136719 356.605469 Z M 621.414062 378.863281 C 621.421875 387.105469 624.902344 397.226562 634.941406 397.21875 C 644.980469 397.210938 648.453125 387.089844 648.445312 378.847656 C 648.441406 370.605469 644.964844 360.488281 634.917969 360.492188 C 624.878906 360.5 621.410156 370.621094 621.414062 378.863281 Z M 621.414062 378.863281 " fill-opacity="1" fill-rule="nonzero"/><path fill="#1d1f1e" d="M 668.042969 386.742188 C 668.042969 386.601562 668.113281 386.535156 668.253906 386.535156 L 669.910156 386.535156 C 670.023438 386.535156 670.097656 386.589844 670.128906 386.699219 C 671.953125 393.15625 675.679688 398.898438 683.179688 397.910156 C 686.832031 397.429688 688.683594 395.332031 688.742188 391.617188 C 688.785156 388.855469 686.875 387.464844 684.753906 385.980469 C 684.207031 385.601562 681.445312 383.832031 676.46875 380.671875 C 672.769531 378.324219 668.785156 375.203125 668.355469 370.425781 C 667.65625 362.617188 673.078125 356.203125 681.101562 356.578125 C 683.746094 356.699219 686.378906 357.5 689 358.976562 C 689.097656 359.03125 689.183594 359.019531 689.261719 358.941406 L 690.71875 357.484375 C 690.792969 357.414062 690.882812 357.375 690.988281 357.375 L 692.152344 357.375 C 692.277344 357.375 692.339844 357.4375 692.339844 357.5625 L 692.332031 368.929688 C 692.332031 369.0625 692.265625 369.128906 692.136719 369.128906 L 690.386719 369.128906 C 690.265625 369.128906 690.183594 369.074219 690.144531 368.957031 C 688.472656 364.308594 685.777344 359.011719 679.765625 360.019531 C 676.933594 360.496094 675.355469 362.019531 675.03125 364.589844 C 674.53125 368.546875 677.445312 370.726562 680.390625 372.550781 C 684.078125 374.824219 687.257812 376.898438 689.933594 378.773438 C 690.96875 379.496094 692.039062 380.457031 693.148438 381.65625 C 696.035156 384.78125 696.558594 388.765625 695.515625 392.769531 C 694.132812 398.0625 689.324219 400.859375 684.140625 401.304688 C 679.632812 401.691406 675.148438 400.644531 671.628906 397.824219 C 671.589844 397.792969 671.542969 397.78125 671.492188 397.789062 C 671.441406 397.796875 671.40625 397.824219 671.378906 397.867188 L 669.929688 400.386719 C 669.859375 400.503906 669.761719 400.558594 669.628906 400.558594 L 668.226562 400.558594 C 668.101562 400.558594 668.039062 400.496094 668.039062 400.371094 Z M 668.042969 386.742188 " fill-opacity="1" fill-rule="nonzero"/><path fill="#1d1f1e" d="M 706.199219 386.742188 C 706.199219 386.601562 706.265625 386.53125 706.40625 386.53125 L 708.0625 386.535156 C 708.179688 386.535156 708.253906 386.589844 708.285156 386.699219 C 710.101562 393.15625 713.832031 398.898438 721.335938 397.910156 C 724.984375 397.429688 726.839844 395.332031 726.894531 391.617188 C 726.941406 388.855469 725.03125 387.460938 722.90625 385.980469 C 722.359375 385.601562 719.597656 383.832031 714.621094 380.671875 C 710.925781 378.324219 706.9375 375.203125 706.511719 370.425781 C 705.8125 362.617188 711.230469 356.203125 719.253906 356.578125 C 721.898438 356.699219 724.53125 357.5 727.152344 358.976562 C 727.25 359.03125 727.335938 359.019531 727.414062 358.941406 L 728.871094 357.484375 C 728.945312 357.414062 729.035156 357.375 729.140625 357.375 L 730.304688 357.375 C 730.429688 357.375 730.492188 357.4375 730.492188 357.5625 L 730.488281 368.929688 C 730.488281 369.0625 730.421875 369.128906 730.289062 369.128906 L 728.539062 369.128906 C 728.417969 369.128906 728.339844 369.074219 728.300781 368.957031 C 726.625 364.308594 723.933594 359.011719 717.921875 360.019531 C 715.089844 360.496094 713.511719 362.019531 713.183594 364.589844 C 712.6875 368.546875 715.601562 370.726562 718.542969 372.550781 C 722.226562 374.824219 725.410156 376.898438 728.089844 378.773438 C 729.125 379.496094 730.195312 380.457031 731.304688 381.65625 C 734.1875 384.777344 734.710938 388.765625 733.667969 392.765625 C 732.289062 398.0625 727.476562 400.859375 722.292969 401.304688 C 717.785156 401.691406 713.300781 400.644531 709.785156 397.824219 C 709.742188 397.792969 709.699219 397.78125 709.648438 397.789062 C 709.597656 397.796875 709.558594 397.824219 709.535156 397.867188 L 708.078125 400.386719 C 708.011719 400.503906 707.914062 400.558594 707.78125 400.558594 L 706.378906 400.558594 C 706.253906 400.558594 706.191406 400.496094 706.191406 400.371094 Z M 706.199219 386.742188 " fill-opacity="1" fill-rule="nonzero"/><g transform="matrix(1, 0, 0, 1, 267, 322)"><g clip-path="url(#d1a29da880)"><g clip-path="url(#6a6fee42b1)"><g fill="#1d1f1e" fill-opacity="1"><g transform="translate(9.701913, 78.31612)"><g><path d="M 11.9375 -50.859375 C 11.9375 -52.773438 11.835938 -54.320312 11.640625 -55.5 C 11.453125 -56.6875 11.066406 -57.625 10.484375 -58.3125 C 9.910156 -59 9.078125 -59.460938 7.984375 -59.703125 C 6.890625 -59.953125 5.460938 -60.128906 3.703125 -60.234375 L 3.703125 -63.375 L 28.71875 -63.375 L 28.71875 -60.234375 C 26.96875 -60.179688 25.554688 -60.019531 24.484375 -59.75 C 23.410156 -59.476562 22.585938 -58.984375 22.015625 -58.265625 C 21.441406 -57.554688 21.054688 -56.566406 20.859375 -55.296875 C 20.671875 -54.035156 20.578125 -52.363281 20.578125 -50.28125 L 20.578125 0.171875 C 20.578125 7.078125 19.117188 12.335938 16.203125 15.953125 C 13.296875 19.578125 9.046875 21.390625 3.453125 21.390625 C -0.328125 21.390625 -3.351562 20.660156 -5.625 19.203125 C -7.90625 17.753906 -9.046875 15.828125 -9.046875 13.421875 C -9.046875 11.992188 -8.675781 10.90625 -7.9375 10.15625 C -7.195312 9.414062 -6.171875 9.046875 -4.859375 9.046875 C -3.816406 9.046875 -2.976562 9.304688 -2.34375 9.828125 C -1.71875 10.347656 -0.992188 11.378906 -0.171875 12.921875 C 0.765625 14.671875 1.578125 15.863281 2.265625 16.5 C 2.953125 17.132812 3.84375 17.453125 4.9375 17.453125 C 7.1875 17.453125 8.914062 16.242188 10.125 13.828125 C 11.332031 11.410156 11.9375 7.976562 11.9375 3.53125 Z M 11.9375 -50.859375 "/></g></g></g></g></g></g><path fill="#1d1f1e" d="M 235.347656 376.4375 C 235.347656 377.609375 235.320312 378.78125 235.261719 379.953125 C 235.203125 381.125 235.117188 382.292969 235.003906 383.460938 C 234.886719 384.628906 234.742188 385.789062 234.570312 386.949219 C 234.398438 388.109375 234.199219 389.265625 233.96875 390.414062 C 233.742188 391.566406 233.484375 392.710938 233.199219 393.847656 C 232.914062 394.984375 232.601562 396.113281 232.261719 397.234375 C 231.921875 398.359375 231.550781 399.472656 231.15625 400.574219 C 230.761719 401.679688 230.339844 402.773438 229.890625 403.855469 C 229.441406 404.941406 228.96875 406.011719 228.464844 407.070312 C 227.964844 408.132812 227.4375 409.179688 226.882812 410.210938 C 226.332031 411.246094 225.753906 412.265625 225.148438 413.273438 C 224.546875 414.277344 223.917969 415.269531 223.269531 416.242188 C 222.617188 417.21875 221.941406 418.175781 221.242188 419.117188 C 220.542969 420.058594 219.824219 420.984375 219.078125 421.890625 C 218.335938 422.796875 217.566406 423.683594 216.78125 424.554688 C 215.992188 425.421875 215.183594 426.269531 214.355469 427.101562 C 213.523438 427.929688 212.675781 428.738281 211.808594 429.523438 C 210.9375 430.3125 210.050781 431.078125 209.144531 431.820312 C 208.238281 432.566406 207.3125 433.285156 206.371094 433.984375 C 205.429688 434.683594 204.46875 435.359375 203.492188 436.011719 C 202.519531 436.660156 201.527344 437.289062 200.523438 437.890625 C 199.515625 438.496094 198.496094 439.070312 197.460938 439.625 C 196.425781 440.175781 195.378906 440.703125 194.320312 441.207031 C 193.257812 441.707031 192.1875 442.183594 191.101562 442.632812 C 190.019531 443.078125 188.925781 443.5 187.820312 443.898438 C 186.714844 444.292969 185.601562 444.660156 184.480469 445 C 183.359375 445.339844 182.226562 445.652344 181.089844 445.9375 C 179.953125 446.222656 178.808594 446.480469 177.65625 446.707031 C 176.507812 446.9375 175.351562 447.136719 174.191406 447.308594 C 173.03125 447.480469 171.867188 447.625 170.699219 447.738281 C 169.53125 447.855469 168.363281 447.941406 167.191406 448 C 166.019531 448.054688 164.847656 448.085938 163.675781 448.085938 C 162.5 448.085938 161.328125 448.054688 160.15625 448 C 158.988281 447.941406 157.816406 447.855469 156.648438 447.738281 C 155.480469 447.625 154.320312 447.480469 153.160156 447.308594 C 151.996094 447.136719 150.84375 446.9375 149.691406 446.707031 C 148.542969 446.480469 147.398438 446.222656 146.261719 445.9375 C 145.121094 445.652344 143.992188 445.339844 142.871094 445 C 141.746094 444.660156 140.632812 444.292969 139.527344 443.898438 C 138.425781 443.5 137.332031 443.078125 136.246094 442.632812 C 135.164062 442.183594 134.089844 441.707031 133.03125 441.207031 C 131.96875 440.703125 130.921875 440.175781 129.886719 439.625 C 128.855469 439.070312 127.832031 438.496094 126.828125 437.890625 C 125.820312 437.289062 124.832031 436.660156 123.855469 436.011719 C 122.878906 435.359375 121.921875 434.683594 120.980469 433.984375 C 120.039062 433.285156 119.113281 432.566406 118.207031 431.820312 C 117.300781 431.078125 116.410156 430.3125 115.542969 429.523438 C 114.671875 428.738281 113.824219 427.929688 112.996094 427.101562 C 112.164062 426.269531 111.355469 425.421875 110.570312 424.554688 C 109.78125 423.683594 109.015625 422.796875 108.269531 421.890625 C 107.527344 420.984375 106.804688 420.058594 106.105469 419.117188 C 105.40625 418.175781 104.734375 417.21875 104.082031 416.242188 C 103.429688 415.269531 102.800781 414.277344 102.199219 413.273438 C 101.597656 412.265625 101.019531 411.246094 100.464844 410.210938 C 99.914062 409.179688 99.386719 408.132812 98.882812 407.070312 C 98.382812 406.011719 97.90625 404.941406 97.457031 403.855469 C 97.007812 402.773438 96.585938 401.679688 96.191406 400.574219 C 95.796875 399.472656 95.429688 398.359375 95.089844 397.234375 C 94.746094 396.113281 94.433594 394.984375 94.148438 393.847656 C 93.867188 392.710938 93.609375 391.566406 93.378906 390.414062 C 93.152344 389.265625 92.949219 388.109375 92.777344 386.949219 C 92.605469 385.789062 92.460938 384.628906 92.347656 383.460938 C 92.234375 382.292969 92.144531 381.125 92.089844 379.953125 C 92.03125 378.78125 92.003906 377.609375 92.003906 376.4375 C 92.003906 375.265625 92.03125 374.09375 92.089844 372.921875 C 92.144531 371.75 92.234375 370.582031 92.347656 369.414062 C 92.460938 368.25 92.605469 367.085938 92.777344 365.925781 C 92.949219 364.765625 93.152344 363.609375 93.378906 362.460938 C 93.609375 361.308594 93.867188 360.167969 94.148438 359.03125 C 94.433594 357.890625 94.746094 356.761719 95.089844 355.640625 C 95.429688 354.519531 95.796875 353.40625 96.191406 352.300781 C 96.585938 351.195312 97.007812 350.101562 97.457031 349.019531 C 97.90625 347.9375 98.382812 346.863281 98.882812 345.804688 C 99.386719 344.746094 99.914062 343.699219 100.464844 342.664062 C 101.019531 341.628906 101.597656 340.609375 102.199219 339.605469 C 102.800781 338.597656 103.429688 337.609375 104.082031 336.632812 C 104.734375 335.660156 105.40625 334.699219 106.105469 333.757812 C 106.804688 332.816406 107.527344 331.890625 108.269531 330.984375 C 109.015625 330.078125 109.78125 329.191406 110.570312 328.324219 C 111.355469 327.453125 112.164062 326.605469 112.996094 325.777344 C 113.824219 324.945312 114.671875 324.136719 115.542969 323.351562 C 116.410156 322.5625 117.300781 321.796875 118.207031 321.054688 C 119.113281 320.308594 120.039062 319.589844 120.980469 318.890625 C 121.921875 318.191406 122.878906 317.515625 123.855469 316.867188 C 124.832031 316.214844 125.820312 315.585938 126.828125 314.984375 C 127.832031 314.382812 128.855469 313.804688 129.886719 313.25 C 130.921875 312.699219 131.96875 312.171875 133.03125 311.671875 C 134.089844 311.167969 135.164062 310.695312 136.246094 310.246094 C 137.332031 309.796875 138.425781 309.375 139.527344 308.980469 C 140.632812 308.585938 141.746094 308.214844 142.871094 307.875 C 143.992188 307.535156 145.121094 307.222656 146.261719 306.9375 C 147.398438 306.652344 148.542969 306.398438 149.691406 306.167969 C 150.84375 305.9375 151.996094 305.738281 153.160156 305.566406 C 154.320312 305.394531 155.480469 305.25 156.648438 305.136719 C 157.816406 305.019531 158.988281 304.933594 160.15625 304.878906 C 161.328125 304.820312 162.5 304.792969 163.675781 304.792969 C 164.847656 304.792969 166.019531 304.820312 167.191406 304.878906 C 168.363281 304.933594 169.53125 305.019531 170.699219 305.136719 C 171.867188 305.25 173.03125 305.394531 174.191406 305.566406 C 175.351562 305.738281 176.507812 305.9375 177.65625 306.167969 C 178.808594 306.398438 179.953125 306.652344 181.089844 306.9375 C 182.226562 307.222656 183.359375 307.535156 184.480469 307.875 C 185.601562 308.214844 186.714844 308.585938 187.820312 308.980469 C 188.925781 309.375 190.019531 309.796875 191.101562 310.246094 C 192.1875 310.695312 193.257812 311.167969 194.320312 311.671875 C 195.378906 312.171875 196.425781 312.699219 197.460938 313.25 C 198.496094 313.804688 199.515625 314.382812 200.523438 314.984375 C 201.527344 315.585938 202.519531 316.214844 203.492188 316.867188 C 204.46875 317.515625 205.429688 318.191406 206.371094 318.890625 C 207.3125 319.589844 208.238281 320.308594 209.144531 321.054688 C 210.050781 321.796875 210.9375 322.5625 211.808594 323.351562 C 212.675781 324.136719 213.527344 324.945312 214.355469 325.777344 C 215.183594 326.605469 215.992188 327.453125 216.78125 328.324219 C 217.566406 329.191406 218.335938 330.078125 219.078125 330.984375 C 219.824219 331.890625 220.542969 332.816406 221.242188 333.757812 C 221.941406 334.699219 222.617188 335.660156 223.269531 336.632812 C 223.917969 337.609375 224.546875 338.597656 225.148438 339.605469 C 225.753906 340.609375 226.332031 341.628906 226.882812 342.664062 C 227.4375 343.699219 227.964844 344.746094 228.464844 345.804688 C 228.96875 346.863281 229.441406 347.9375 229.890625 349.019531 C 230.339844 350.101562 230.761719 351.195312 231.15625 352.300781 C 231.550781 353.40625 231.921875 354.519531 232.261719 355.640625 C 232.601562 356.761719 232.914062 357.890625 233.199219 359.03125 C 233.484375 360.167969 233.742188 361.308594 233.96875 362.460938 C 234.199219 363.609375 234.398438 364.765625 234.570312 365.925781 C 234.742188 367.085938 234.886719 368.25 235.003906 369.414062 C 235.117188 370.582031 235.203125 371.75 235.261719 372.921875 C 235.320312 374.09375 235.347656 375.265625 235.347656 376.4375 Z M 116.644531 421.746094 C 130.625 397.503906 146.507812 369.992188 164.289062 339.207031 C 164.476562 338.882812 164.617188 338.511719 164.988281 338.398438 C 165.171875 338.34375 165.351562 338.351562 165.53125 338.417969 C 165.707031 338.488281 165.84375 338.601562 165.9375 338.765625 C 194.167969 387.671875 209.726562 414.632812 212.617188 419.652344 C 212.652344 419.71875 212.695312 419.722656 212.746094 419.664062 C 231.25 398.710938 234.402344 367.933594 220.324219 343.746094 C 215.945312 336.230469 210.449219 329.921875 203.832031 324.824219 C 192.273438 315.914062 179.25 311.324219 164.761719 311.054688 C 158.378906 310.9375 152.257812 311.691406 146.402344 313.320312 C 123.398438 319.710938 105.652344 337.964844 100.066406 361.113281 C 94.8125 382.902344 101.101562 405.601562 116.511719 421.761719 C 116.5625 421.816406 116.609375 421.8125 116.644531 421.746094 Z M 165.167969 351.441406 L 121.824219 426.484375 C 121.765625 426.585938 121.78125 426.675781 121.871094 426.75 C 147.199219 447.59375 183.34375 446.75 207.621094 424.871094 C 207.660156 424.835938 207.667969 424.792969 207.640625 424.746094 L 181.082031 378.765625 C 181.0625 378.730469 181.035156 378.714844 180.996094 378.714844 C 180.957031 378.714844 180.929688 378.730469 180.910156 378.765625 C 175.234375 388.738281 167.503906 402.324219 157.714844 419.519531 C 157.347656 420.160156 157 420.550781 156.265625 420.148438 C 155.058594 419.488281 153.46875 418.574219 151.5 417.40625 C 151.027344 417.125 150.898438 416.800781 151.109375 416.429688 C 167.441406 387.722656 175.964844 372.75 176.679688 371.515625 C 176.757812 371.378906 176.757812 371.246094 176.679688 371.113281 L 165.320312 351.441406 C 165.300781 351.410156 165.273438 351.398438 165.242188 351.398438 C 165.207031 351.398438 165.183594 351.410156 165.167969 351.441406 Z M 165.167969 351.441406 " fill-opacity="1" fill-rule="nonzero"/></svg>